<?xml version="1.0" encoding="utf-8"?>
<!-- Generator: Adobe Illustrator 16.0.0, SVG Export Plug-In . SVG Version: 6.00 Build 0)  -->
<!DOCTYPE svg PUBLIC "-//W3C//DTD SVG 1.1//EN" "http://www.w3.org/Graphics/SVG/1.1/DTD/svg11.dtd">
<svg version="1.1" id="Capa_1" xmlns="http://www.w3.org/2000/svg" xmlns:xlink="http://www.w3.org/1999/xlink" x="0px" y="0px"
	 width="612px" height="792px" viewBox="0 0 612 792" enable-background="new 0 0 612 792" xml:space="preserve">
<g>
	<path d="M162.455,642.289C158.313,618.309,137.352,600,112.199,600c-20.084,0-37.485,11.669-45.799,28.58 c-1.643-1.172-3.396-2.214-5.202-3.151V457.2c0-5.63-4.569-10.2-10.199-10.2S40.8,451.57,40.8,457.2v163.199 C18.299,620.399,0,638.698,0,661.2S18.299,702,40.8,702H153c16.87,0,30.6-13.729,30.6-30.6 C183.6,657.823,174.715,646.288,162.455,642.289z M153,681.6H40.8c-11.251,0-20.4-9.148-20.4-20.4S29.549,640.8,40.8,640.8 c9.517,0,17.973,5.528,21.042,13.771c1.724,4.621,6.497,7.344,11.373,6.467c4.855-0.878,8.384-5.101,8.384-10.037 c0-16.871,13.729-30.601,30.601-30.601c16.87,0,30.6,13.729,30.6,30.601c0,5.63,4.569,10.199,10.2,10.199 c5.62,0,10.199,4.579,10.199,10.199C163.198,677.02,158.62,681.6,153,681.6z M601.8,171.601H407.999c-5.63,0-10.199,4.569-10.199,10.199s4.569,10.2,10.199,10.2H591.6v220.178L313.211,133.789 c-2-2-4.621-2.988-7.242-2.988c-2.622,0-5.243,0.99-7.243,2.988L20.401,412.166V192h112.2c5.63,0,10.199-4.57,10.199-10.2V141 c0-5.63-4.569-10.2-10.199-10.2H122.4v-20.4h61.2v20.4h-10.199c-5.63,0-10.2,4.57-10.2,10.2V181.8c0,5.63,4.57,10.2,10.2,10.2 H204c5.63,0,10.2-4.57,10.2-10.2s-4.57-10.199-10.2-10.199h-20.4v-20.4h10.2c5.63,0,10.199-4.57,10.199-10.2V100.2 c0-5.63-4.569-10.2-10.199-10.2h-81.6c-5.63,0-10.199,4.57-10.199,10.2v40.799c0,5.63,4.569,10.2,10.199,10.2H122.4v20.4h-112.2 c-2.702,0-5.304,1.071-7.211,2.988C1.071,176.497,0,179.098,0,181.8l0.04,255c0,4.131,2.489,7.844,6.305,9.425 c1.265,0.52,2.58,0.775,3.896,0.775c2.662,0,5.273-1.039,7.211-2.988l288.517-288.62l288.619,288.619 c1.948,1.948,4.559,2.988,7.211,2.988c1.316,0,2.642-0.255,3.906-0.775c3.805-1.581,6.293-5.304,6.293-9.425V181.8 C612,176.17,607.43,171.601,601.8,171.601z M571.2,620.399V457.2c0-5.63-4.57-10.2-10.2-10.2s-10.199,4.57-10.199,10.2v168.229c-1.805,0.938-3.56,1.978-5.202,3.151 c-8.313-16.911-25.715-28.58-45.798-28.58c-25.153,0-46.114,18.309-50.256,42.289c-12.261,3.999-21.146,15.534-21.146,29.111 c0,3.6,0.734,6.997,1.888,10.199H254.999c-5.63,0-10.199,4.569-10.199,10.199s4.569,10.2,10.199,10.2H459h40.799h71.4 C593.7,702,612,683.701,612,661.2C612,638.7,593.7,620.399,571.2,620.399z M571.2,681.6h-71.399H459 c-5.621,0-10.2-4.579-10.2-10.199c0-5.621,4.579-10.2,10.2-10.2c5.63,0,10.199-4.569,10.199-10.199 c0-16.871,13.729-30.601,30.6-30.601c16.871,0,30.601,13.729,30.601,30.601c0,4.937,3.529,9.159,8.384,10.037 c4.845,0.887,9.649-1.847,11.373-6.467c3.069-8.241,11.526-13.771,21.043-13.771c11.25,0,20.4,9.149,20.4,20.4 C591.6,672.453,582.45,681.6,571.2,681.6z M346.799,294c0-22.502-18.299-40.8-40.799-40.8c-22.502,0-40.8,18.299-40.8,40.8S283.498,334.8,306,334.8 C328.501,334.8,346.799,316.501,346.799,294z M285.6,294c0-11.25,9.148-20.4,20.4-20.4c11.25,0,20.4,9.149,20.4,20.4 c0,11.25-9.149,20.4-20.401,20.4C294.749,314.399,285.6,305.25,285.6,294z M499.799,436.8h-81.601c-5.63,0-10.199,4.569-10.199,10.199v112.2H397.8c-5.63,0-10.2,4.57-10.2,10.2 s4.57,10.199,10.2,10.199h122.399c5.63,0,10.2-4.569,10.2-10.199s-4.57-10.2-10.2-10.2H510v-112.2 C510,441.369,505.431,436.8,499.799,436.8z M489.6,559.199h-61.2V518.4h61.2V559.199z M489.6,498h-61.2v-40.8h61.2V498z M407.999,651c0-5.63-4.569-10.2-10.199-10.2h-30.601V447c0-5.63-4.569-10.199-10.199-10.199H255.001 c-5.63,0-10.2,4.569-10.2,10.199v193.8h-30.6c-5.63,0-10.2,4.57-10.2,10.2v40.799c0,5.63,4.57,10.2,10.2,10.2 s10.199-4.57,10.199-10.2v-30.6H397.8C403.43,661.2,407.999,656.631,407.999,651z M346.799,538.801H336.6 c-5.63,0-10.199,4.569-10.199,10.199s4.569,10.199,10.199,10.199h10.199V640.8h-81.6V457.2h81.6V538.801z M193.8,436.8h-81.6c-5.63,0-10.199,4.569-10.199,10.199v112.2H91.8c-5.63,0-10.199,4.57-10.199,10.2 s4.569,10.2,10.199,10.2h122.4c5.63,0,10.199-4.569,10.199-10.199s-4.569-10.199-10.199-10.199H204V447 C204,441.369,199.431,436.8,193.8,436.8z M183.6,559.199h-61.2V518.4h61.2V559.199z M183.6,498h-61.2v-40.8h61.2V498z"/>
</g>
</svg>